<svg width="16" height="16" viewBox="0 0 16 16" fill="none" xmlns="http://www.w3.org/2000/svg">
<path d="M13.7071 6.29297L8.70709 1.29297C8.51957 1.1055 8.26526 1.00018 8.00009 1.00018C7.73493 1.00018 7.48062 1.1055 7.29309 1.29297L2.29309 6.29297C2.10559 6.48048 2.00024 6.73479 2.00024 6.99997C2.00024 7.13127 2.02611 7.26129 2.07635 7.3826C2.1266 7.5039 2.20025 7.61412 2.29309 7.70697C2.38594 7.79981 2.49616 7.87346 2.61747 7.92371C2.73877 7.97396 2.86879 7.99982 3.00009 7.99982C3.26527 7.99982 3.51959 7.89448 3.70709 7.70697L7.00009 4.41397V14C7.00009 14.2652 7.10545 14.5195 7.29299 14.7071C7.48052 14.8946 7.73488 15 8.00009 15C8.26531 15 8.51966 14.8946 8.7072 14.7071C8.89474 14.5195 9.00009 14.2652 9.00009 14V4.41397L12.2931 7.70697C12.3857 7.80015 12.4959 7.8741 12.6172 7.92457C12.7386 7.97503 12.8687 8.001 13.0001 8.001C13.1315 8.001 13.2616 7.97503 13.3829 7.92457C13.5043 7.8741 13.6144 7.80015 13.7071 7.70697C13.8946 7.51944 13.9999 7.26513 13.9999 6.99997C13.9999 6.73481 13.8946 6.4805 13.7071 6.29297Z" fill="white"/>
</svg>
