<svg width="24" height="24" viewBox="0 0 24 24" fill="none" xmlns="http://www.w3.org/2000/svg">
<path d="M20.27 8.485L20.975 12.565C21.0163 12.8041 21.005 13.0494 20.9416 13.2837C20.8783 13.518 20.7646 13.7356 20.6084 13.9213C20.4522 14.1071 20.2573 14.2564 20.0373 14.359C19.8173 14.4615 19.5776 14.5148 19.335 14.515H14.154C14.033 14.515 13.9136 14.5413 13.8039 14.5921C13.6941 14.6429 13.5968 14.7169 13.5186 14.8091C13.4403 14.9013 13.3831 15.0095 13.3509 15.126C13.3187 15.2426 13.3122 15.3647 13.332 15.484L13.995 19.529C14.1022 20.1861 14.0715 20.8584 13.905 21.503C13.766 22.036 13.355 22.465 12.813 22.639L12.668 22.686C12.34 22.791 11.983 22.766 11.674 22.618C11.5078 22.5395 11.3609 22.4256 11.2434 22.2843C11.1259 22.143 11.0408 21.9777 10.994 21.8L10.518 19.966C10.3667 19.3823 10.1465 18.8187 9.86196 18.287C9.44696 17.51 8.80496 16.887 8.13696 16.312L6.69796 15.072C6.49833 14.8995 6.34241 14.6821 6.24299 14.4377C6.14356 14.1934 6.10346 13.9289 6.12596 13.666L6.93796 4.273C6.97375 3.85759 7.164 3.4707 7.47115 3.18873C7.7783 2.90676 8.18001 2.75021 8.59696 2.75H13.245C16.727 2.75 19.698 5.176 20.27 8.485Z" fill="white"/>
<path fill-rule="evenodd" clip-rule="evenodd" d="M2.96808 15.265C3.16134 15.2734 3.35039 15.2069 3.49574 15.0792C3.64109 14.9516 3.7315 14.7727 3.74808 14.58L4.71808 3.34398C4.73451 3.17666 4.71666 3.00774 4.66562 2.84755C4.61458 2.68736 4.53142 2.53926 4.42122 2.41228C4.31102 2.28531 4.17609 2.18213 4.02468 2.10905C3.87327 2.03597 3.70855 1.99453 3.54058 1.98724C3.37261 1.97996 3.20492 2.007 3.04775 2.0667C2.89058 2.1264 2.74723 2.21751 2.62646 2.33447C2.50568 2.45143 2.41002 2.59178 2.3453 2.74696C2.28059 2.90213 2.24819 3.06886 2.25008 3.23698V14.516C2.2499 14.7095 2.32451 14.8955 2.45832 15.0353C2.59212 15.1751 2.77476 15.2567 2.96808 15.265Z" fill="white"/>
</svg>
