<svg width="314" height="72" viewBox="0 0 314 72" fill="none" xmlns="http://www.w3.org/2000/svg">
<g clip-path="url(#clip0_11_67)">
<path d="M16.7234 12.2458H27.904L19.1704 25.1463L27.9045 38.0376H16.7234L9.62334 25.8672V38.0376H-0.000488281V12.2458H9.62334V24.4191L16.7234 12.2458ZM47.2358 17.4106H39.1591V22.5648H54.4928C53.5209 23.2867 52.9466 24.1796 52.9466 25.1463C52.9466 26.1135 53.5205 26.9991 54.4928 27.7143H39.1591V32.8858H47.2358C46.2542 33.6086 45.7659 34.4928 45.7659 35.4614C45.7659 36.4282 46.2538 37.3176 47.2358 38.0376H29.612V12.2458H47.2358C46.2542 12.9716 45.7659 13.8572 45.7659 14.8282C45.7659 15.7997 46.2538 16.682 47.2358 17.4106ZM81.9128 17.7298V38.0376H72.3624V17.7298H63.7264V12.2458H90.5561V17.7293L81.9128 17.7298ZM92.2738 12.2458H101.893V38.0376H92.2738V12.2458Z" fill="#005AA1"/>
<path d="M61.3572 29.656C65.9247 29.656 69.6711 27.6433 69.6711 25.1464C69.6711 22.6475 65.9247 20.631 61.3572 20.631C56.6979 20.631 52.9462 22.6475 52.9462 25.1464C52.9462 27.6433 56.6979 29.656 61.3572 29.656ZM54.0832 19.3422C58.66 19.3422 62.4092 17.3286 62.4092 14.8283C62.4092 12.3333 58.66 10.3173 54.0832 10.3173C49.5153 10.3173 45.766 12.3333 45.766 14.8283C45.766 17.3286 49.5153 19.3422 54.0832 19.3422ZM46.8277 9.02416C51.4759 9.02416 55.2368 7.01296 55.2368 4.51121C55.2368 2.01042 51.4759 0.000676032 46.8277 0.000676032C42.2544 0.000676032 38.5081 2.01042 38.5081 4.51121C38.5081 7.01344 42.2544 9.02416 46.8277 9.02416ZM54.0832 39.9721C58.66 39.9721 62.4092 37.9547 62.4092 35.462C62.4092 32.9583 58.66 30.9419 54.0832 30.9419C49.5153 30.9419 45.766 32.9579 45.766 35.462C45.766 37.9547 49.5153 39.9721 54.0832 39.9721ZM46.8277 50.2959C51.4759 50.2959 55.2368 48.2737 55.2368 45.7791C55.2368 43.2759 51.4759 41.2604 46.8277 41.2604C42.2544 41.2604 38.5081 43.2759 38.5081 45.7796C38.5081 48.2737 42.2544 50.2959 46.8277 50.2959Z" fill="#76CBF2"/>
<path d="M208.811 57.3509H208.31C208.045 57.3509 207.826 57.4997 207.72 57.7224C207.693 57.8009 207.679 57.8833 207.679 57.9663V68.7744C207.679 69.1109 207.951 69.3782 208.31 69.3782H208.811C209.068 69.3782 209.291 69.2328 209.389 69.0106C209.423 68.9328 209.445 68.8464 209.445 68.7744V57.9643C209.445 57.6236 209.164 57.3509 208.811 57.3509ZM248.194 57.3509H247.68C247.435 57.3509 247.21 57.4997 247.109 57.7224C247.077 57.7998 247.061 57.8827 247.061 57.9663V68.7744C247.061 69.1109 247.334 69.3782 247.68 69.3782H248.194C248.444 69.3782 248.67 69.2328 248.776 69.0106C248.806 68.9328 248.821 68.856 248.821 68.7744V57.9643C248.821 57.8833 248.805 57.8031 248.773 57.7283C248.741 57.6535 248.695 57.5857 248.637 57.5286C248.578 57.4716 248.509 57.4266 248.433 57.3961C248.357 57.3656 248.276 57.3502 248.194 57.3509ZM159.074 62.7466C159.074 62.1504 159.605 61.669 160.24 61.669H162.293C162.949 61.669 163.477 62.1504 163.477 62.7466V63.8429H159.074V62.7466ZM162.293 59.9727H160.24C158.628 59.9727 157.316 61.2159 157.316 62.7471V66.611C157.316 68.1413 158.628 69.3926 160.24 69.3926H162.293C163.007 69.3926 163.688 69.1469 164.205 68.7139C164.603 68.3938 164.898 67.9939 165.067 67.5528C165.134 67.3637 165.11 67.165 165.003 67.0042C164.885 66.8352 164.697 66.7387 164.48 66.7387H163.926C163.665 66.7387 163.436 66.8765 163.373 67.067C163.268 67.259 163.111 67.4194 162.921 67.5314C162.731 67.6434 162.514 67.7028 162.293 67.7035H160.24C159.605 67.7035 159.074 67.2139 159.074 66.611V65.5287H164.346C164.845 65.5287 165.235 65.1542 165.235 64.6771V62.7466C165.235 61.2159 163.916 59.9727 162.293 59.9727ZM170.265 61.6685H172.32C172.773 61.6685 173.192 61.8989 173.375 62.2325C173.458 62.4763 173.691 62.6357 173.962 62.6357H174.504C174.713 62.6357 174.914 62.533 175.029 62.3563C175.14 62.196 175.162 61.9891 175.092 61.825C174.917 61.3634 174.621 60.9559 174.235 60.6442C173.72 60.2165 173.038 59.9727 172.32 59.9727H170.265C168.654 59.9727 167.338 61.2159 167.338 62.7471V66.611C167.338 68.1413 168.654 69.3926 170.265 69.3926H172.32C173.033 69.3926 173.706 69.1469 174.232 68.7139C174.626 68.3933 174.917 67.9939 175.089 67.5528C175.162 67.3637 175.14 67.165 175.029 67.0042C174.97 66.921 174.891 66.8533 174.8 66.807C174.708 66.7608 174.607 66.7373 174.504 66.7387H173.944C173.688 66.7387 173.453 66.8803 173.397 67.067C173.193 67.451 172.763 67.7035 172.32 67.7035H170.264C169.622 67.7035 169.102 67.2139 169.102 66.611V62.7471C169.102 62.1504 169.622 61.669 170.265 61.669M182.061 59.9731H178.84V57.9639C178.839 57.8829 178.823 57.8028 178.791 57.7281C178.76 57.6534 178.714 57.5856 178.655 57.5286C178.597 57.4717 178.528 57.4267 178.452 57.3962C178.376 57.3656 178.295 57.3503 178.213 57.3509H177.708C177.542 57.351 177.383 57.4156 177.265 57.5307C177.147 57.6458 177.08 57.8021 177.078 57.9658V68.7739C177.078 69.1109 177.359 69.3782 177.708 69.3782H178.212C178.467 69.3782 178.692 69.2333 178.791 69.0106C178.824 68.9328 178.84 68.856 178.84 68.7739V61.669H182.061C182.713 61.669 183.24 62.1504 183.24 62.7471V68.7898C183.24 69.1291 183.512 69.3931 183.867 69.3931H184.373C184.723 69.3931 185 69.1291 185 68.7898V62.7466C185 61.2159 183.683 59.9731 182.062 59.9731M192.28 59.9645H187.926C187.576 59.9645 187.3 60.2256 187.3 60.5693V68.7744C187.3 69.1104 187.576 69.3782 187.926 69.3782H188.431C188.79 69.3782 189.056 69.1109 189.056 68.7744V61.6498H192.28C192.941 61.6498 193.464 62.1288 193.464 62.7466V68.7744C193.464 69.1104 193.737 69.3782 194.084 69.3782H194.596C194.677 69.3791 194.757 69.3641 194.832 69.3342C194.908 69.3043 194.976 69.26 195.034 69.2039C195.092 69.1479 195.138 69.0811 195.17 69.0074C195.202 68.9337 195.218 68.8545 195.219 68.7744V62.7466C195.219 61.2077 193.902 59.965 192.28 59.965M199.133 62.7466C199.133 62.1504 199.653 61.669 200.294 61.669H202.351C202.995 61.669 203.53 62.1504 203.53 62.7466V66.6106C203.53 67.1986 202.995 67.6843 202.351 67.6843H200.294C199.654 67.6843 199.133 67.1986 199.133 66.611V62.7466ZM202.351 59.9727H200.294C198.685 59.9727 197.371 61.2159 197.371 62.7471V66.611C197.371 68.1379 198.685 69.3782 200.294 69.3782H202.351C203.969 69.3782 205.292 68.1379 205.292 66.611V62.7471C205.292 61.2159 203.97 59.9727 202.351 59.9727ZM213.567 62.7466C213.567 62.1504 214.082 61.669 214.719 61.669H216.781C217.429 61.669 217.956 62.1504 217.956 62.7466V66.6106C217.956 67.1986 217.429 67.6843 216.781 67.6843H214.718C214.082 67.6843 213.567 67.1986 213.567 66.611L213.567 62.7466ZM216.781 59.9727H214.718C213.112 59.9727 211.795 61.2159 211.795 62.7471V66.611C211.795 68.1379 213.112 69.3782 214.718 69.3782H216.781C218.399 69.3782 219.715 68.1379 219.715 66.611V62.7471C219.715 61.2159 218.399 59.9727 216.781 59.9727ZM239.335 59.9731H238.98C238.803 59.9735 238.629 60.025 238.481 60.1214C238.333 60.2177 238.217 60.3547 238.147 60.5155L235.656 66.9178L233.152 60.5002C233.082 60.3428 232.967 60.2092 232.821 60.1155C232.675 60.0219 232.504 59.9724 232.33 59.9731H231.972C231.869 59.9731 231.768 59.9979 231.678 60.0454C231.587 60.093 231.509 60.1618 231.452 60.2458C231.394 60.3241 231.358 60.4157 231.346 60.5119C231.334 60.608 231.347 60.7056 231.384 60.7954L234.709 69.3216L233.99 71.1691C233.954 71.2621 233.942 71.3623 233.954 71.461C233.967 71.5597 234.003 71.6539 234.061 71.7355C234.117 71.8176 234.192 71.8847 234.28 71.9309C234.369 71.9771 234.468 72.001 234.568 72.0005H234.934C235.295 72.0005 235.621 71.7869 235.771 71.4465L239.926 60.7896C239.963 60.6999 239.975 60.6022 239.963 60.5062C239.95 60.4101 239.913 60.3189 239.854 60.2415C239.797 60.1572 239.72 60.0884 239.629 60.0414C239.539 59.9944 239.438 59.9708 239.335 59.9727M256.356 59.9645H252.017C251.666 59.9645 251.386 60.2256 251.386 60.5693V68.7744C251.386 69.1104 251.666 69.3782 252.017 69.3782H252.519C252.6 69.3799 252.681 69.3655 252.757 69.3358C252.832 69.3062 252.901 69.2619 252.958 69.2056C253.016 69.1493 253.062 69.0822 253.093 69.0081C253.124 68.934 253.14 68.8546 253.139 68.7744V61.6498H256.356C257.021 61.6498 257.537 62.1288 257.537 62.7466V68.7744C257.537 69.1104 257.814 69.3782 258.163 69.3782H258.678C259.027 69.3782 259.303 69.1109 259.303 68.7744V62.7466C259.303 61.2077 257.981 59.965 256.357 59.965M296.696 59.9645H296.19C295.837 59.9645 295.556 60.2256 295.556 60.5693V67.6843H292.347C291.681 67.6843 291.157 67.2077 291.157 66.5938V60.5688C291.157 60.2256 290.892 59.965 290.541 59.965H290.036C289.685 59.965 289.405 60.2256 289.405 60.5688V66.5938C289.405 68.1336 290.728 69.3778 292.347 69.3778H296.695C297.041 69.3778 297.324 69.1109 297.324 68.7744V60.5688C297.324 60.2256 297.042 59.965 296.696 59.965M309.006 61.6685H311.054C311.707 61.6685 312.238 62.1504 312.238 62.7466V63.8429H307.838V62.7466C307.838 62.1504 308.36 61.669 309.006 61.669M313.107 65.5287C313.602 65.5287 313.998 65.1542 313.998 64.6771V62.7466C313.998 61.2159 312.677 59.9727 311.054 59.9727H309.006C307.395 59.9727 306.076 61.2159 306.076 62.7471V66.611C306.076 68.1413 307.395 69.3931 309.006 69.3931H311.054C311.772 69.3931 312.445 69.1469 312.965 68.7139C313.358 68.3933 313.653 67.9992 313.828 67.5528C313.896 67.3637 313.871 67.165 313.761 67.0042C313.702 66.9208 313.623 66.8531 313.531 66.8068C313.44 66.7605 313.338 66.7372 313.235 66.7387H312.686C312.422 66.7387 312.189 66.8765 312.132 67.067C312.027 67.259 311.871 67.4194 311.681 67.5314C311.491 67.6434 311.274 67.7028 311.053 67.7035H309.006C308.36 67.7035 307.838 67.2139 307.838 66.611V65.5287H313.107ZM275.661 67.728C275.586 67.6997 275.507 67.68 275.425 67.68L273.905 67.6848C273.263 67.6848 272.738 67.1986 272.738 66.611V61.6738H275.27C275.605 61.6738 275.867 61.4069 275.867 61.0627V60.577C275.867 60.3317 275.725 60.1138 275.504 60.0197C275.431 59.9866 275.348 59.9717 275.266 59.9717H272.738V58.8807C272.738 58.5519 272.453 58.2735 272.111 58.2735H271.604C271.265 58.2735 270.976 58.5519 270.976 58.8807V66.611C270.976 68.1384 272.291 69.3787 273.906 69.3787H275.431C275.764 69.3787 276.029 69.1157 276.029 68.7739V68.292C276.029 68.0405 275.888 67.824 275.661 67.728ZM287.216 67.728C287.143 67.6997 287.06 67.68 286.976 67.68L285.449 67.6848C284.81 67.6848 284.291 67.1986 284.291 66.611V61.6738H286.82C287.158 61.6738 287.418 61.4069 287.418 61.0627V60.577C287.418 60.3317 287.279 60.1138 287.056 60.0197C286.985 59.9866 286.9 59.9717 286.82 59.9717H284.291V58.8807C284.291 58.5519 284.001 58.2735 283.66 58.2735H283.153C282.813 58.2735 282.527 58.5519 282.527 58.8807V66.611C282.527 68.1384 283.84 69.3787 285.449 69.3787H286.985C287.313 69.3787 287.574 69.1157 287.574 68.7739V68.292C287.574 68.0405 287.437 67.824 287.215 67.728M304.237 67.728C304.155 67.6997 304.08 67.68 303.996 67.68L302.475 67.6848C301.827 67.6848 301.306 67.1986 301.306 66.611V61.6738H303.843C304.174 61.6738 304.437 61.4069 304.437 61.0627V60.577C304.439 60.4979 304.424 60.4193 304.395 60.3458C304.365 60.2723 304.321 60.2054 304.265 60.149C304.209 60.0926 304.142 60.0478 304.068 60.0172C303.994 59.9867 303.915 59.9711 303.835 59.9712H301.306V58.8807C301.306 58.5519 301.019 58.2735 300.681 58.2735H300.172C299.834 58.2735 299.547 58.5519 299.547 58.8807V66.611C299.547 68.1384 300.857 69.3787 302.475 69.3787H303.996C304.336 69.3787 304.603 69.1157 304.603 68.7739V68.292C304.603 68.0405 304.455 67.824 304.237 67.728ZM279.389 57.3509H278.886C278.633 57.3509 278.4 57.4997 278.306 57.7224C278.276 57.8004 278.259 57.8829 278.257 57.9663V59.4783C278.257 59.8167 278.531 60.0831 278.883 60.0831H279.389C279.643 60.0831 279.875 59.9419 279.967 59.7211C280.007 59.6501 280.021 59.5651 280.021 59.4783V57.9643C280.021 57.6236 279.744 57.3509 279.389 57.3509ZM279.389 61.1856H278.886C278.633 61.1856 278.402 61.3311 278.306 61.5586C278.276 61.6335 278.259 61.7131 278.257 61.7938V68.7744C278.257 69.1109 278.531 69.3782 278.883 69.3782H279.389C279.643 69.3782 279.875 69.2328 279.967 69.0149C280.007 68.9381 280.021 68.8565 280.021 68.7744V61.7938C280.021 61.4554 279.744 61.1856 279.389 61.1856ZM156.699 57.4037C156.618 57.373 156.544 57.3509 156.44 57.3509H148.307C148.228 57.3509 148.147 57.373 148.072 57.4037C147.962 57.4513 147.868 57.5298 147.803 57.6295C147.738 57.7292 147.704 57.8457 147.705 57.9643V58.4491C147.704 58.6082 147.767 58.7612 147.88 58.8746C147.992 58.9881 148.146 59.0525 148.307 59.0539H151.503V68.7739C151.503 69.1061 151.78 69.3782 152.114 69.3782H152.637C152.979 69.3782 153.269 69.1018 153.269 68.7739V59.0539H156.463C156.808 59.0539 157.067 58.7837 157.067 58.4491V57.9643C157.067 57.7138 156.924 57.4959 156.699 57.4037ZM223.528 62.7466C223.528 62.1504 224.053 61.669 224.691 61.669H227.929V67.1198H224.691C224.054 67.1198 223.529 66.6322 223.529 66.0269L223.528 62.7466ZM229.055 59.9727H224.691C223.083 59.9727 221.77 61.2159 221.77 62.7471V66.0269C221.77 67.5595 223.083 68.8109 224.691 68.8109H227.929V69.216C227.929 69.8074 227.397 70.296 226.757 70.3041H223.515C223.42 70.3041 223.341 70.3128 223.276 70.3435C223.05 70.4366 222.912 70.6627 222.912 70.9046V71.3942C222.912 71.736 223.175 72.0005 223.515 72.0005H226.746C228.37 72.0005 229.693 70.7501 229.693 69.216V60.5818C229.693 60.2458 229.409 59.9727 229.055 59.9727ZM266.14 63.8429H264.167C263.879 63.8429 263.584 63.7277 263.351 63.528C263.12 63.3384 262.984 63.0778 262.97 62.8085C262.954 62.5094 263.073 62.2248 263.29 62.0069C263.502 61.7923 263.81 61.669 264.137 61.669H267.686C267.766 61.6687 267.844 61.6529 267.918 61.6223C267.991 61.5918 268.058 61.5472 268.114 61.4911C268.169 61.435 268.214 61.3685 268.243 61.2955C268.273 61.2224 268.288 61.1443 268.286 61.0656V60.577C268.286 60.4186 268.224 60.2666 268.111 60.1537C267.999 60.0407 267.846 59.9759 267.686 59.9731H264.198C263.4 59.9756 262.632 60.2775 262.05 60.8179C261.487 61.3714 261.192 62.0578 261.203 62.8013C261.23 63.5354 261.549 64.2294 262.091 64.7319C262.663 65.2474 263.387 65.5287 264.137 65.5287H266.175C266.473 65.5287 266.765 65.6362 266.989 65.8234C267.225 66.0197 267.359 66.2731 267.371 66.5453C267.377 66.6938 267.352 66.8421 267.298 66.9807C267.243 67.1193 267.16 67.2452 267.054 67.3502C266.831 67.5682 266.528 67.6843 266.19 67.6843L262.194 67.6819C261.858 67.6819 261.595 67.9498 261.595 68.2867V68.7744C261.595 69.0206 261.738 69.24 261.962 69.3274C262.036 69.3605 262.114 69.3782 262.197 69.3782H266.19C266.957 69.3782 267.692 69.1018 268.254 68.5867C268.797 68.0731 269.116 67.3858 269.132 66.6696C269.148 65.9256 268.859 65.2339 268.29 64.6733C267.721 64.1434 266.938 63.8429 266.14 63.8429ZM11.9523 62.7485C11.9523 62.1552 12.4829 61.6695 13.1257 61.6695H15.1767C15.8235 61.6695 16.356 62.1552 16.356 62.7485V66.6087C16.356 67.2053 15.8235 67.6896 15.1767 67.6896H13.1262C12.4829 67.6896 11.9523 67.2048 11.9523 66.6087V62.7485ZM15.1767 59.9765H13.1262C11.5096 59.9765 10.1962 61.2197 10.1962 62.7485V66.6087C10.1962 68.1379 11.5096 69.3782 13.1262 69.3782H15.1767C16.7963 69.3782 18.1165 68.1379 18.1165 66.6087V62.7485C18.1165 61.2197 16.7963 59.9765 15.1767 59.9765ZM28.7728 62.7485C28.7728 62.1552 29.2889 61.6695 29.9308 61.6695H31.9847C32.6372 61.6695 33.1732 62.1552 33.1732 62.7485V63.84H28.7733L28.7728 62.7485ZM31.9847 59.9765H29.9308C28.3176 59.9765 27.0114 61.2197 27.0114 62.7485V66.6087C27.0114 68.148 28.3176 69.3946 29.9308 69.3946H31.9847C32.7038 69.3946 33.3778 69.1546 33.8962 68.7154C34.2849 68.4118 34.5834 68.0101 34.7602 67.5528C34.8287 67.3666 34.8024 67.165 34.6994 67.0042C34.6393 66.9204 34.5594 66.8524 34.4667 66.8059C34.374 66.7594 34.2713 66.7358 34.1674 66.7373H33.6202C33.3549 66.7373 33.1304 66.8794 33.0639 67.069C32.8608 67.4563 32.4356 67.7026 31.9852 67.7026H29.9308C29.2889 67.7026 28.7733 67.2144 28.7733 66.6082V65.5339H34.0435C34.5415 65.5339 34.9283 65.1595 34.9283 64.6786V62.7485C34.9283 61.2197 33.6139 59.9765 31.9847 59.9765ZM64.6666 57.3571H64.1559C63.9023 57.3571 63.6768 57.5031 63.5753 57.7248C63.5431 57.8018 63.5267 57.8844 63.5272 57.9677V68.771C63.5272 69.1157 63.8056 69.3782 64.1559 69.3782H64.6666C64.913 69.3782 65.1384 69.2371 65.2395 69.0115C65.2716 68.9347 65.2847 68.856 65.2847 68.7715V57.9658C65.2847 57.6264 65.015 57.3571 64.6666 57.3571ZM69.4795 62.7485C69.4795 62.1552 70.0057 61.6695 70.6462 61.6695H72.7016C73.3488 61.6695 73.8779 62.1552 73.8779 62.7485V63.84H69.4795V62.7485ZM72.702 59.9765H70.6467C69.0247 59.9765 67.7167 61.2197 67.7167 62.7485V66.6087C67.7167 68.148 69.0247 69.3946 70.6467 69.3946H72.702C73.4095 69.3946 74.0878 69.1546 74.6116 68.7154C74.9963 68.4089 75.2928 68.008 75.4712 67.5528C75.5412 67.3666 75.5198 67.1659 75.4032 66.9998C75.3432 66.9184 75.2645 66.8522 75.1736 66.8066C75.0828 66.761 74.9823 66.7372 74.8803 66.7373H74.3264C74.0655 66.7373 73.8371 66.8794 73.7715 67.069C73.5703 67.4563 73.1457 67.7026 72.702 67.7026H70.6467C70.0058 67.7026 69.4795 67.2144 69.4795 66.6082V65.5339H74.7511C75.2482 65.5339 75.6403 65.1595 75.6403 64.6786V62.7485C75.6403 61.2197 74.3167 59.9765 72.702 59.9765ZM80.6179 61.6695H82.6645C83.1193 61.6695 83.5377 61.9013 83.7204 62.2407C83.8011 62.4763 84.0421 62.6366 84.3132 62.6366H84.8516C85.063 62.6366 85.2597 62.5315 85.3754 62.3583C85.4286 62.2816 85.4624 62.1934 85.4736 62.1011C85.4849 62.0089 85.4733 61.9153 85.44 61.8283C85.2702 61.3652 84.9745 60.9573 84.5853 60.6495C84.0669 60.2127 83.3885 59.977 82.6645 59.977H80.6179C78.9998 59.977 77.683 61.2202 77.683 62.7485V66.6087C77.683 68.148 78.9998 69.3946 80.6179 69.3946H82.6645C83.3788 69.3946 84.0557 69.1546 84.5771 68.7154C84.9632 68.4096 85.2609 68.0086 85.44 67.5528C85.5076 67.3613 85.4852 67.1621 85.372 67.0042C85.2602 66.8371 85.06 66.7373 84.8516 66.7373H84.2972C84.0377 66.7373 83.8011 66.8794 83.7389 67.069C83.5377 67.4558 83.1193 67.7026 82.6645 67.7026H80.6179C79.9702 67.7026 79.4517 67.2144 79.4517 66.6082V62.7485C79.4517 62.1552 79.9702 61.6695 80.6179 61.6695ZM102.784 62.7485C102.784 62.1552 103.304 61.6695 103.943 61.6695H105.996C106.65 61.6695 107.179 62.1552 107.179 62.7485V66.6087C107.179 67.2053 106.65 67.6896 105.996 67.6896H103.943C103.304 67.6896 102.784 67.2048 102.784 66.6087V62.7485ZM105.996 59.9765H103.943C102.332 59.9765 101.016 61.2197 101.016 62.7485V66.6087C101.016 68.1379 102.332 69.3782 103.943 69.3782H105.996C107.623 69.3782 108.938 68.1379 108.938 66.6087V62.7485C108.938 61.2197 107.623 59.9765 105.996 59.9765M115.95 59.9631H111.605C111.251 59.9631 110.977 60.2314 110.977 60.5717V68.7715C110.977 69.1157 111.251 69.3782 111.604 69.3782H112.11C112.465 69.3782 112.733 69.1157 112.733 68.7715V61.6579H115.95C116.612 61.6579 117.129 62.1331 117.129 62.7485V68.7715C117.129 69.1157 117.411 69.3782 117.759 69.3782H118.27C118.351 69.3797 118.432 69.3651 118.507 69.3352C118.583 69.3052 118.651 69.2607 118.709 69.2041C118.767 69.1475 118.812 69.0801 118.843 69.0058C118.874 68.9315 118.889 68.8518 118.888 68.7715V62.7485C118.888 61.2106 117.571 59.9631 115.95 59.9631ZM128.251 61.6695H130.301C130.759 61.6695 131.174 61.9013 131.363 62.2373C131.446 62.4763 131.682 62.6366 131.951 62.6366H132.49C132.707 62.6366 132.903 62.5315 133.015 62.3607C133.126 62.1975 133.149 61.992 133.081 61.8283C132.91 61.3631 132.61 60.9547 132.215 60.6495C131.713 60.2127 131.029 59.977 130.301 59.977H128.25C126.64 59.977 125.326 61.2202 125.326 62.7485V66.6087C125.326 68.148 126.64 69.3946 128.251 69.3946H130.301C131.013 69.3946 131.699 69.1546 132.215 68.7154C132.601 68.4072 132.9 68.0051 133.081 67.5485C133.149 67.3613 133.126 67.1621 133.015 67.0042C132.956 66.9212 132.877 66.8536 132.785 66.8071C132.694 66.7606 132.593 66.7367 132.49 66.7373H131.936C131.672 66.7373 131.445 66.8794 131.38 67.069C131.181 67.4558 130.759 67.7026 130.301 67.7026H128.251C127.611 67.7026 127.089 67.2144 127.089 66.6082V62.7485C127.089 62.1552 127.611 61.6695 128.251 61.6695ZM4.9397 63.131L8.53588 58.3258C8.67971 58.1391 8.70401 57.9077 8.60246 57.6979C8.49701 57.4906 8.28468 57.3571 8.03298 57.3571H7.54367C7.40577 57.359 7.26999 57.391 7.14614 57.4509C7.02228 57.5109 6.91343 57.5972 6.82745 57.7037L3.48539 62.1715C3.39161 62.3059 3.2196 62.3827 3.03204 62.3827H1.76529V57.9663C1.76529 57.6264 1.48832 57.3571 1.13458 57.3571H0.637988C0.3756 57.3571 0.148685 57.5035 0.0524759 57.7248C0.0182234 57.8015 0.000199649 57.8844 -0.000488281 57.9682V68.771C-0.000488281 69.1152 0.281334 69.3782 0.637988 69.3782H1.13458C1.39211 69.3782 1.62098 69.2366 1.71281 69.0115C1.75071 68.9347 1.76529 68.856 1.76529 68.7715V64.0752H3.17733C3.36246 64.0752 3.54127 64.1606 3.63894 64.2979L7.20936 69.0427C7.38089 69.2587 7.63113 69.3787 7.90761 69.3787H8.41004C8.64473 69.3787 8.85561 69.2587 8.95814 69.0605C9.06601 68.8589 9.05532 68.6208 8.91246 68.4182L4.9397 63.131ZM25.2928 60.0211C25.2104 59.9883 25.1222 59.972 25.0333 59.9731H23.2675C21.6534 59.9731 20.3434 61.2163 20.3434 62.7466V68.7826C20.3434 69.1094 20.6203 69.373 20.9702 69.373H21.4687C21.8225 69.373 22.1014 69.1094 22.1014 68.7826V62.7466C22.1014 62.1792 22.5824 61.7079 23.1801 61.6733H25.0532C25.1339 61.6738 25.2139 61.6584 25.2885 61.6281C25.363 61.5978 25.4308 61.553 25.4877 61.4966C25.5446 61.4401 25.5895 61.373 25.6199 61.2991C25.6502 61.2253 25.6654 61.1463 25.6645 61.0666V60.5808C25.6645 60.3346 25.5139 60.1152 25.2928 60.0211ZM99.3826 60.0211C99.3 59.9904 99.2256 59.9731 99.1187 59.9731H97.35C95.7407 59.9731 94.4249 61.2163 94.4249 62.7466V68.7826C94.4249 69.1094 94.7125 69.373 95.06 69.373H95.5575C95.9074 69.373 96.1878 69.1094 96.1878 68.7826V62.7466C96.1878 62.1792 96.6712 61.7079 97.2708 61.6733H99.1425C99.4807 61.6733 99.748 61.4069 99.748 61.0666V60.5808C99.748 60.3346 99.6022 60.1152 99.3826 60.0211ZM38.3801 66.2294C38.3801 65.6333 38.9059 65.1495 39.5434 65.1495H42.7815V67.7026H39.5434C38.9059 67.7026 38.3801 67.2144 38.3801 66.6082V66.2294ZM41.5973 59.977H38.2553C38.1741 59.977 38.0937 59.992 38.0182 60.0211C37.7946 60.1152 37.6596 60.3346 37.6596 60.5808V61.0666C37.6596 61.4069 37.9171 61.6699 38.2553 61.6699H41.5973C42.2533 61.6699 42.7815 62.1547 42.7815 62.748V63.4541H39.5434C37.938 63.4541 36.6246 64.7026 36.6246 66.2294V66.6087C36.6246 68.1475 37.938 69.3946 39.5434 69.3946H43.6556C44.1561 69.3946 44.5429 69.0178 44.5429 68.5411V62.748C44.5429 61.2197 43.2232 59.977 41.5973 59.977ZM60.7225 57.4061C60.6406 57.3698 60.5513 57.3531 60.4616 57.3571H53.6342C53.4047 57.3579 53.1848 57.4482 53.0224 57.6085C52.86 57.7687 52.7683 57.9858 52.7673 58.2125V68.5411C52.7673 68.9971 53.1342 69.359 53.6094 69.3782H60.4908C60.8309 69.3782 61.0977 69.1152 61.0977 68.7744V68.2858C61.0977 68.0429 60.9524 67.824 60.7225 67.7266C60.6494 67.6953 60.5705 67.6793 60.4908 67.6795H54.5248V63.9797H59.2663C59.6118 63.9797 59.8761 63.7094 59.8761 63.373V62.8872C59.8761 62.64 59.7318 62.4187 59.5083 62.3256C59.4325 62.2959 59.3489 62.2781 59.2663 62.2781H54.5248V59.0549H60.4908C60.8309 59.0549 61.0977 58.7875 61.0977 58.4506V57.9658C61.0977 57.7195 60.9524 57.4997 60.7225 57.4066M92.163 67.729C92.0871 67.701 92.0069 67.6859 91.9259 67.6843L90.3967 67.6896C89.7573 67.6896 89.2403 67.2048 89.2403 66.6087V61.6733H91.7631C92.1032 61.6733 92.3685 61.4069 92.3685 61.0661V60.5813C92.3685 60.3341 92.2242 60.1152 92.0007 60.0211C91.9259 59.9904 91.8477 59.9731 91.7631 59.9731H89.2403V58.8869C89.2403 58.5567 88.9487 58.2783 88.6052 58.2783H88.0999C87.7583 58.2783 87.4735 58.5567 87.4735 58.8869V66.6087C87.4735 68.1379 88.7855 69.383 90.3967 69.383H91.9259C92.2621 69.383 92.5245 69.1152 92.5245 68.7744V68.293C92.5245 68.0482 92.3812 67.824 92.163 67.729ZM122.41 57.3571H121.909C121.653 57.3571 121.419 57.5031 121.324 57.7248C121.293 57.8021 121.278 57.8847 121.28 57.9677V59.4811C121.28 59.8176 121.553 60.0859 121.909 60.0859H122.406C122.529 60.088 122.65 60.0546 122.754 59.9898C122.858 59.925 122.941 59.8317 122.992 59.7211C123.023 59.6419 123.044 59.5627 123.044 59.4811V57.9658C123.044 57.6264 122.766 57.3571 122.41 57.3571ZM122.41 61.1895H121.909C121.653 61.1895 121.419 61.3344 121.324 61.5562C121.294 61.6338 121.279 61.7164 121.28 61.7995V68.7715C121.28 69.1157 121.553 69.3782 121.909 69.3782H122.406C122.665 69.3782 122.893 69.2366 122.992 69.0115C123.023 68.9347 123.044 68.856 123.044 68.7715V61.7976C123.044 61.452 122.766 61.1895 122.41 61.1895ZM139.673 63.84H137.694C137.408 63.84 137.121 63.7277 136.877 63.5299C136.644 63.3355 136.511 63.0783 136.5 62.8099C136.487 62.5075 136.606 62.2243 136.82 62.0054C137.033 61.7923 137.337 61.6695 137.662 61.6695H141.209C141.554 61.6695 141.816 61.4069 141.816 61.0661V60.5808C141.816 60.3389 141.672 60.1171 141.451 60.0231C141.375 59.9917 141.292 59.9759 141.209 59.9765H137.736C136.936 59.977 136.165 60.278 135.58 60.8184C135.014 61.3757 134.72 62.0578 134.739 62.8008C134.765 63.5448 135.072 64.2307 135.628 64.7347C136.195 65.2493 136.917 65.5339 137.662 65.5339H139.706C140 65.5339 140.296 65.64 140.524 65.8253C140.753 66.024 140.887 66.2779 140.899 66.5482C140.914 66.851 140.799 67.1304 140.578 67.3498C140.37 67.5691 140.056 67.6901 139.721 67.6901L135.727 67.6891C135.392 67.6891 135.128 67.9517 135.128 68.2882V68.7739C135.128 69.0178 135.266 69.2386 135.491 69.3326C135.565 69.3649 135.646 69.3805 135.727 69.3782H139.721C140.488 69.3782 141.22 69.0998 141.784 68.5862C142.052 68.3393 142.267 68.0424 142.417 67.7127C142.568 67.3831 142.651 67.0273 142.661 66.6658C142.684 65.9184 142.39 65.2354 141.813 64.6738C141.232 64.1381 140.467 63.8401 139.673 63.84ZM313.144 35.2369H302.169V31.8322C302.169 31.5553 301.944 31.3311 301.673 31.3311H299.905C299.839 31.3317 299.774 31.3452 299.714 31.3708C299.653 31.3963 299.598 31.4334 299.552 31.48C299.506 31.5266 299.47 31.5816 299.445 31.6421C299.421 31.7025 299.409 31.7672 299.41 31.8322V37.5284C299.41 37.8102 299.629 38.0367 299.905 38.0367H313.144C313.415 38.0367 313.635 37.8101 313.635 37.5279V35.7356C313.635 35.4586 313.415 35.2369 313.144 35.2369ZM306.691 28.7463V30.5367C306.691 30.8161 306.906 31.0427 307.177 31.0427H310.614V33.1354C310.614 33.4124 310.834 33.639 311.11 33.639H312.877C313.153 33.639 313.373 33.4124 313.373 33.135V13.839C313.373 13.5621 313.153 13.3355 312.877 13.3355H311.11C310.834 13.3355 310.614 13.5621 310.614 13.8395V28.2428H307.177C306.906 28.2428 306.69 28.4694 306.69 28.7468" fill="#005AA1"/>
<path d="M299.41 29.0986C299.41 29.3779 299.629 29.6021 299.905 29.6021H301.673C301.944 29.6021 302.169 29.3779 302.169 29.0981V26.664H308.954C309.225 26.664 309.45 26.4327 309.45 26.1557V24.3677C309.45 24.0883 309.225 23.8642 308.954 23.8642H294.052C293.781 23.8642 293.556 24.0883 293.556 24.3682V26.1557C293.556 26.4327 293.781 26.664 294.052 26.664H299.41V29.0986ZM301.551 15.0452C303.483 15.0452 304.876 16.14 304.876 17.641C304.876 19.14 303.483 20.233 301.551 20.233C299.615 20.233 298.222 19.14 298.222 17.641C298.222 16.14 299.615 15.0452 301.551 15.0452ZM301.551 23.0323C305.021 23.0323 307.644 20.7135 307.644 17.641C307.644 14.5642 305.021 12.2458 301.551 12.2458C298.077 12.2458 295.458 14.5642 295.458 17.641C295.458 20.713 298.077 23.0323 301.551 23.0323ZM138.106 16.6508H149.512C149.37 18.0533 149.053 20.1096 148.471 21.6303C148.373 21.8866 148.485 22.1712 148.742 22.2773L150.246 22.992C150.373 23.0429 150.569 23.0146 150.62 22.992C150.747 22.9407 150.845 22.8394 150.896 22.7146C151.918 20.1101 152.279 16.3973 152.293 14.93V14.1692C152.293 14.0848 152.259 14.0038 152.199 13.9441C152.139 13.8845 152.057 13.8509 151.971 13.8509H138.106C137.831 13.8509 137.611 14.0775 137.611 14.352V16.152C137.611 16.4266 137.831 16.6508 138.106 16.6508ZM203.425 20.4077H199.796V13.8384C199.796 13.5615 199.576 13.3349 199.309 13.3349H197.532C197.261 13.3349 197.036 13.5615 197.036 13.8389V36.0773C197.036 36.3499 197.261 36.5808 197.532 36.5808H199.309C199.576 36.5808 199.795 36.3504 199.795 36.0768V23.2071H203.425C203.701 23.2071 203.921 22.9853 203.921 22.7035V20.9112C203.921 20.6343 203.701 20.4072 203.425 20.4072M190.873 17.2248H193.992C194.263 17.2248 194.488 17.0007 194.488 16.7213V14.9285C194.488 14.6492 194.263 14.4207 193.992 14.4207H182.704C182.428 14.4207 182.208 14.6492 182.208 14.9285V16.7213C182.207 16.7866 182.219 16.8515 182.243 16.9122C182.267 16.9729 182.304 17.0283 182.35 17.0751C182.396 17.1219 182.451 17.1593 182.511 17.185C182.572 17.2107 182.638 17.2242 182.704 17.2248H186.22L181.885 28.7414C181.841 28.8663 181.845 29.0025 181.895 29.125C181.949 29.2479 182.05 29.3453 182.175 29.3971L183.835 30.035C183.952 30.0763 184.088 30.0763 184.205 30.0254C184.326 29.9702 184.424 29.8666 184.471 29.7437L188.535 18.9437L192.309 30.0029C192.33 30.064 192.363 30.1205 192.406 30.1691C192.449 30.2176 192.502 30.2573 192.56 30.2858C192.619 30.3144 192.683 30.3312 192.748 30.3353C192.813 30.3395 192.879 30.3309 192.941 30.3101L194.619 29.7254C194.736 29.6813 194.839 29.5862 194.899 29.471C194.96 29.3462 194.965 29.2085 194.924 29.0808L190.873 17.2248ZM178.624 35.2368H167.962V29.6712C167.962 29.6063 167.95 29.5419 167.926 29.4816C167.901 29.4214 167.865 29.3666 167.819 29.3202C167.773 29.2739 167.718 29.2369 167.657 29.2115C167.597 29.186 167.532 29.1726 167.466 29.172H165.698C165.427 29.172 165.203 29.3938 165.203 29.6712V37.5278C165.203 37.8096 165.427 38.0362 165.698 38.0362H178.624C178.895 38.0362 179.119 37.8096 179.119 37.5274V35.7355C179.12 35.6706 179.107 35.6062 179.083 35.5459C179.058 35.4857 179.022 35.4309 178.976 35.3845C178.93 35.3382 178.875 35.3012 178.815 35.2758C178.754 35.2504 178.689 35.2369 178.624 35.2363M172.484 21.4637H176.079V30.5707C176.079 30.8453 176.304 31.0747 176.575 31.0747H178.353C178.624 31.0747 178.839 30.8453 178.839 30.5707V13.8389C178.839 13.5615 178.624 13.3349 178.353 13.3349H176.575C176.304 13.3349 176.08 13.5615 176.08 13.8389V18.662H172.484C172.213 18.662 171.993 18.8861 171.993 19.1679V20.9554C171.993 21.2352 172.213 21.4637 172.484 21.4637ZM169.184 26.6515C169.245 26.7715 169.338 26.8661 169.465 26.9151C169.586 26.9568 169.727 26.9539 169.839 26.8987L171.452 26.1528C171.574 26.0971 171.672 25.9959 171.719 25.8711C171.759 25.7451 171.753 25.6089 171.699 25.4875L167.967 17.2248H170.786C170.853 17.2243 170.918 17.2108 170.979 17.1851C171.04 17.1594 171.095 17.1221 171.141 17.0753C171.187 17.0285 171.223 16.9731 171.247 16.9123C171.272 16.8516 171.284 16.7866 171.282 16.7213V14.929C171.282 14.6492 171.063 14.4207 170.787 14.4207H160.003C159.727 14.4207 159.503 14.6492 159.503 14.929V16.7213C159.503 17.0007 159.727 17.2248 160.003 17.2248H162.912L159.007 25.9311C158.955 26.0554 158.951 26.1945 158.997 26.3213C159.044 26.4461 159.133 26.5431 159.255 26.6031L160.868 27.3422C160.932 27.3738 161.003 27.3896 161.074 27.3883C161.266 27.3883 161.443 27.2731 161.523 27.0927L165.446 18.3567L169.184 26.6515ZM267.295 35.2368H256.332V29.6707C256.333 29.5398 256.281 29.4138 256.188 29.3203C256.095 29.2269 255.969 29.1738 255.836 29.1725H254.064C253.931 29.1738 253.804 29.2269 253.712 29.3203C253.619 29.4138 253.567 29.5398 253.568 29.6707V37.5278C253.568 37.8096 253.792 38.0362 254.064 38.0362H267.294C267.565 38.0362 267.79 37.8096 267.79 37.5274V35.7355C267.791 35.6706 267.778 35.6062 267.754 35.5459C267.729 35.4857 267.693 35.4309 267.647 35.3845C267.601 35.3382 267.546 35.3012 267.486 35.2758C267.425 35.2504 267.36 35.2369 267.294 35.2363M273.366 16.6292H285.288C285.198 18.6471 284.953 21.4407 284.296 23.1562C284.198 23.4125 284.311 23.6967 284.568 23.8032L286.199 24.5055C286.259 24.5304 286.323 24.5438 286.387 24.5448C286.487 24.5428 286.584 24.5117 286.667 24.4554C286.749 24.399 286.813 24.3199 286.85 24.228C288.225 20.7216 288.101 14.3861 288.101 14.3213C288.092 14.0487 287.867 13.8293 287.606 13.8293H273.366C273.09 13.8293 272.87 14.0559 272.87 14.3304V16.1304C272.87 16.405 273.09 16.6292 273.366 16.6292ZM129.316 35.2368H118.342V29.6736C118.342 29.3962 118.118 29.172 117.847 29.172H116.079C116.013 29.1726 115.948 29.1861 115.888 29.2117C115.827 29.2373 115.772 29.2744 115.726 29.3211C115.68 29.3677 115.644 29.4228 115.619 29.4833C115.595 29.5438 115.583 29.6085 115.584 29.6736V37.5283C115.584 37.8101 115.803 38.0366 116.079 38.0366H129.316C129.588 38.0366 129.808 37.8101 129.808 37.5278V35.7355C129.808 35.4586 129.588 35.2368 129.317 35.2368M132.779 18.5232H129.548V13.8384C129.548 13.5615 129.328 13.3354 129.052 13.3354H127.285C127.009 13.3354 126.789 13.5615 126.789 13.8389V30.5702C126.789 30.8477 127.009 31.0743 127.285 31.0743H129.052C129.328 31.0743 129.548 30.8477 129.548 30.5702V21.3274H132.779C133.05 21.3274 133.265 21.1008 133.265 20.822V19.0268C133.265 18.7498 133.05 18.5232 132.779 18.5232ZM230.159 22.3032C230.222 22.3506 230.301 22.3731 230.38 22.3664C230.459 22.3596 230.533 22.3242 230.588 22.2668L236.603 15.9293L242.619 22.2668C242.673 22.3242 242.747 22.3597 242.826 22.3664C242.906 22.3732 242.985 22.3506 243.048 22.3032L244.771 21.061C244.806 21.0338 244.836 20.9995 244.857 20.9604C244.878 20.9213 244.891 20.8783 244.895 20.834C244.898 20.7897 244.892 20.7451 244.878 20.7032C244.863 20.6613 244.839 20.623 244.808 20.5906L237.731 13.129C237.684 13.0797 237.627 13.0403 237.565 13.0134C237.502 12.9865 237.434 12.9726 237.366 12.9725H235.841C235.772 12.9727 235.705 12.9866 235.642 13.0135C235.579 13.0404 235.523 13.0797 235.476 13.129L228.399 20.5906C228.368 20.6228 228.344 20.6611 228.329 20.7031C228.313 20.745 228.307 20.7897 228.311 20.834C228.315 20.8784 228.327 20.9216 228.349 20.9607C228.371 20.9998 228.4 21.034 228.436 21.061L230.159 22.3032ZM251.445 20.0842C251.445 18.1397 252.975 16.5596 254.859 16.5596C256.74 16.5596 258.273 18.1397 258.273 20.0842C258.273 22.0339 256.74 23.6141 254.859 23.6141C252.975 23.6141 251.445 22.0339 251.445 20.0842ZM260.985 19.2716H264.773V21.1147H260.952C261.052 20.5051 261.063 19.8844 260.985 19.2716ZM259.769 23.9189H264.773V30.5707C264.773 30.8458 264.998 31.0747 265.269 31.0747H267.041C267.317 31.0747 267.537 30.8458 267.537 30.5707V13.8384C267.537 13.5615 267.317 13.3349 267.041 13.3349H265.269C264.998 13.3349 264.773 13.5615 264.773 13.8389V16.4693H259.924C258.764 14.7673 256.875 13.7573 254.859 13.7573C251.455 13.7573 248.677 16.5989 248.677 20.0842C248.677 23.5771 251.455 26.4183 254.859 26.4183C256.767 26.4183 258.601 25.4847 259.769 23.9189ZM114.251 21.8247C114.251 20.2378 115.748 18.948 117.592 18.948C119.432 18.948 120.934 20.2378 120.934 21.8247C120.934 23.4159 119.432 24.7051 117.592 24.7051C115.748 24.7051 114.251 23.4159 114.251 21.8247ZM122.442 25.2581C123.226 24.3043 123.691 23.1144 123.691 21.8247C123.691 20.6189 123.283 19.4995 122.588 18.5799C122.476 18.4311 122.356 18.2885 122.231 18.1517H123.802C124.083 18.1517 124.312 17.9396 124.312 17.6717V15.8415C124.312 15.5736 124.083 15.3519 123.802 15.3519H118.98V12.8401C118.98 12.5626 118.76 12.3365 118.485 12.3365H116.717C116.441 12.3365 116.221 12.5626 116.221 12.8405V15.3519H111.395C111.116 15.3519 110.885 15.5736 110.885 15.8415V17.6712C110.885 17.9396 111.116 18.1517 111.395 18.1517H112.976C112.063 19.1405 111.506 20.4221 111.506 21.8247C111.506 24.9495 114.241 27.4915 117.592 27.4915C119.471 27.4915 121.291 26.6592 122.442 25.2581ZM222.616 13.3349H220.838C220.568 13.3349 220.343 13.5615 220.343 13.8389V36.0773C220.343 36.3499 220.568 36.5808 220.838 36.5808H222.616C222.882 36.5808 223.102 36.3499 223.102 36.0768V13.8384C223.102 13.5615 222.882 13.3349 222.616 13.3349ZM216.178 14.4207H205.617C205.341 14.4207 205.122 14.6472 205.122 14.9223V16.7194C205.122 16.994 205.341 17.2205 205.617 17.2205H213.919C213.923 23.4644 208.156 31.2173 208.156 31.2173C208.017 31.5187 208.17 31.7573 208.428 31.8638L209.957 32.5214C209.957 32.5214 210.324 32.771 210.76 32.2272C211.363 31.4736 216.674 24.3221 216.674 16.249V14.9223C216.674 14.6472 216.454 14.4207 216.178 14.4207ZM155.621 24.1503H134.31C134.033 24.1503 133.809 24.372 133.809 24.6456V26.4547C133.809 26.7283 134.033 26.9496 134.31 26.9496H143.445V29.2181H138.111C137.835 29.2181 137.611 29.4442 137.611 29.7259V31.5187C137.611 31.7957 137.835 32.0174 138.111 32.0174H149.534V37.5374C149.534 37.8144 149.763 38.0362 150.034 38.0362H151.798C152.068 38.0362 152.293 37.8144 152.293 37.5369V29.7259C152.293 29.4442 152.068 29.2181 151.797 29.2181H146.207V26.9496H155.621C155.898 26.9496 156.122 26.7283 156.122 26.4547V24.6456C156.122 24.372 155.898 24.1503 155.621 24.1503ZM290.605 26.6347H270.593C270.316 26.6347 270.092 26.8565 270.092 27.1301V28.9387C270.092 29.2123 270.316 29.4341 270.593 29.4341H279.077V36.8304C279.077 37.1025 279.297 37.3296 279.568 37.3296H281.336C281.607 37.3296 281.836 37.1025 281.836 36.8304V29.4336H290.606C290.883 29.4336 291.108 29.2123 291.108 28.9392V27.1296C291.108 26.856 290.883 26.6347 290.606 26.6347M229.552 37.5441C229.561 37.8163 229.785 38.0362 230.047 38.0362H243.593C243.869 38.0362 244.089 37.8096 244.089 37.535V36.0216C244.089 35.7465 243.869 35.5224 243.593 35.5224H232.316V34.2355H243.159C243.412 34.2355 243.609 34.0435 243.642 33.8002L243.655 33.8102V28.512C243.646 28.2399 243.421 28.02 243.159 28.02H237.981V26.4355H246.535C246.812 26.4355 247.036 26.2138 247.036 25.9402V24.1311C247.036 23.8575 246.812 23.6357 246.535 23.6357H226.672C226.395 23.6357 226.17 23.8579 226.17 24.1311V25.9402C226.17 26.2138 226.395 26.4355 226.672 26.4355H235.222V28.02H230.047C229.771 28.02 229.552 28.2461 229.552 28.5211V30.035C229.552 30.3096 229.771 30.5338 230.047 30.5338H240.961V31.7213H230.047C229.771 31.7213 229.552 31.9478 229.552 32.2229V37.5441Z" fill="#005AA1"/>
</g>
<defs>
<clipPath id="clip0_11_67">
<rect width="314" height="72" fill="white"/>
</clipPath>
</defs>
</svg>
