<svg width="84" height="42" viewBox="0 0 84 42" fill="none" xmlns="http://www.w3.org/2000/svg">
<path d="M50.4148 24.7127C54.1677 24.7127 57.2459 23.0355 57.2459 20.9547C57.2459 18.8723 54.1677 17.1919 50.4148 17.1919C46.5864 17.1919 43.5038 18.8723 43.5038 20.9547C43.5038 23.0355 46.5864 24.7127 50.4148 24.7127ZM44.4381 16.118C48.1986 16.118 51.2792 14.44 51.2792 12.3564C51.2792 10.2772 48.1986 8.59717 44.4381 8.59717C40.6848 8.59717 37.6042 10.2772 37.6042 12.3564C37.6042 14.44 40.6848 16.118 44.4381 16.118ZM38.4765 7.51957C42.2957 7.51957 45.3859 5.84357 45.3859 3.75878C45.3859 1.67479 42.2957 1.09711e-06 38.4765 1.09711e-06C34.7188 1.09711e-06 31.6406 1.67479 31.6406 3.75878C31.6406 5.84397 34.7188 7.51957 38.4765 7.51957ZM44.4381 33.3095C48.1986 33.3095 51.2792 31.6283 51.2792 29.5511C51.2792 27.4647 48.1986 25.7843 44.4381 25.7843C40.6848 25.7843 37.6042 27.4643 37.6042 29.5511C37.6042 31.6283 40.6848 33.3095 44.4381 33.3095ZM38.4765 41.9127C42.2957 41.9127 45.3859 40.2275 45.3859 38.1487C45.3859 36.0627 42.2957 34.3831 38.4765 34.3831C34.7188 34.3831 31.6406 36.0627 31.6406 38.1491C31.6406 40.2275 34.7188 41.9127 38.4765 41.9127Z" fill="#76CBF2"/>
<path d="M13.7413 10.2044H22.9279L15.7519 20.9547L22.9283 31.6975H13.7413L7.90748 21.5555V31.6975H0V10.2044H7.90748V20.3487L13.7413 10.2044ZM38.812 14.5084H32.1757V18.8035H44.7747C43.9762 19.4051 43.5043 20.1491 43.5043 20.9547C43.5043 21.7607 43.9758 22.4987 44.7747 23.0947H32.1757V27.4043H38.812C38.0055 28.0067 37.6042 28.7435 37.6042 29.5507C37.6042 30.3563 38.0051 31.0975 38.812 31.6975H24.3313V10.2044H38.812C38.0055 10.8092 37.6042 11.5472 37.6042 12.3564C37.6042 13.166 38.0051 13.9012 38.812 14.5084ZM67.3046 14.7744V31.6975H59.4574V14.7744H52.3616V10.2044H74.4064V14.774L67.3046 14.7744ZM75.8177 10.2044H83.7212V31.6975H75.8177V10.2044Z" fill="#005AA1"/>
</svg>
