<svg width="18" height="20" viewBox="0 0 18 20" fill="none" xmlns="http://www.w3.org/2000/svg">
<path d="M0.692323 8.35706L1.38188 8.29752C1.36599 8.11884 1.2824 7.95318 1.14848 7.83498C1.01457 7.71677 0.840609 7.65509 0.662747 7.66276C0.484884 7.67042 0.316786 7.74683 0.193369 7.87613C0.0699513 8.00542 0.000700282 8.17766 0 8.35706H0.692323ZM16.6028 10.0529L15.9511 13.8483L17.3164 14.0864L17.9672 10.291L16.6028 10.0529ZM10.1495 18.6046H5.85798V20H10.1495V18.6046ZM5.01704 17.826L4.26748 9.08823L2.88745 9.20823L3.63793 17.946L5.01704 17.826ZM15.9511 13.8483C15.4831 16.5739 13.0443 18.6046 10.1495 18.6046V20C13.6812 20 16.7275 17.5172 17.3164 14.0864L15.9511 13.8483ZM10.1587 3.58118L9.54668 7.34402L10.9129 7.56914L11.5249 3.80723L10.1587 3.58118ZM4.55826 8.36822L5.88659 7.21472L4.98196 6.15796L3.65547 7.31146L4.55826 8.36822ZM8.30234 3.46211L8.74174 1.75604L7.4014 1.40627L6.962 3.11141L8.30234 3.46211ZM9.40452 1.42115L9.53837 1.46488L9.96207 0.136486L9.82822 0.092765L9.40452 1.42115ZM7.63679 5.17748C7.92497 4.63413 8.14837 4.05834 8.30234 3.46211L6.962 3.11141C6.83481 3.60099 6.65141 4.07395 6.41553 4.52073L7.63679 5.17748ZM9.53837 1.46488C9.66988 1.50549 9.78916 1.57872 9.88529 1.67787C9.98141 1.77701 10.0513 1.89889 10.0885 2.03232L11.4289 1.68255C11.3339 1.32097 11.1495 0.989526 10.893 0.719167C10.6365 0.448808 10.3163 0.248344 9.96207 0.136486L9.53837 1.46488ZM8.74174 1.75604C8.76042 1.68917 8.79317 1.62714 8.83777 1.57417C8.88237 1.5212 8.93777 1.47853 9.0002 1.44906L8.39927 0.192301C7.90818 0.430444 7.53894 0.87138 7.4014 1.40627L8.74174 1.75604ZM9.0002 1.44906C9.12664 1.38862 9.27109 1.37865 9.40452 1.42115L9.82822 0.092765C9.35676 -0.0591151 8.84551 -0.023503 8.39927 0.192301L9.0002 1.44906ZM10.9886 9.05474H15.7702V7.65937H10.9886V9.05474ZM2.27913 18.7498L1.38188 8.29752L0.00276931 8.41752L0.898174 18.8698L2.27913 18.7498ZM1.38465 18.8493V8.35706H0V18.8493H1.38465ZM0.898174 18.8698C0.895358 18.8359 0.900472 18.8019 0.911406 18.7698C0.922339 18.7377 0.939774 18.7083 0.962605 18.6834C0.985436 18.6584 1.01316 18.6386 1.04402 18.625C1.07489 18.6115 1.10821 18.6045 1.14187 18.6046V20C1.81204 20 2.33636 19.4214 2.27913 18.7498L0.898174 18.8698ZM11.5249 3.80723C11.6409 3.10005 11.6082 2.37618 11.4289 1.68255L10.0885 2.03326C10.2195 2.53855 10.2434 3.06596 10.1587 3.58118L11.5249 3.80723ZM5.85798 18.6046C5.6466 18.6043 5.44302 18.5241 5.28737 18.38C5.13171 18.2359 5.03527 18.0382 5.01704 17.826L3.63793 17.946C3.68596 18.5062 3.94059 19.0278 4.35158 19.4081C4.76257 19.7883 5.30005 19.9995 5.85798 20V18.6046ZM5.88659 7.21472C6.5143 6.66959 7.19001 6.02121 7.63771 5.17748L6.41553 4.52073C6.09614 5.12446 5.58751 5.6333 4.98196 6.15796L5.88659 7.21472ZM17.9672 10.291C18.0227 9.96823 18.0076 9.63708 17.9228 9.32079C17.8381 9.00449 17.6857 8.7107 17.4764 8.45999C17.2671 8.20928 17.0059 8.00772 16.7112 7.86942C16.4165 7.73112 16.0953 7.65943 15.7702 7.65937V9.05474C16.2936 9.05474 16.6933 9.53103 16.6028 10.0529L17.9672 10.291ZM1.14187 18.6046C1.27664 18.6046 1.38465 18.7144 1.38465 18.8493H0C0 19.4837 0.510473 20 1.14187 20V18.6046ZM9.54668 7.34402C9.51226 7.5548 9.52377 7.77059 9.58038 7.97644C9.637 8.18229 9.73738 8.37325 9.87456 8.5361C10.0117 8.69894 10.1824 8.82976 10.3748 8.91948C10.5672 9.0092 10.7766 9.05474 10.9886 9.05474V7.65937C10.9773 7.65942 10.9662 7.6579 10.9559 7.65312C10.9457 7.64834 10.9367 7.64135 10.9295 7.63264C10.9222 7.62394 10.917 7.61373 10.9141 7.60276C10.9113 7.59178 10.9108 7.5803 10.9129 7.56914L9.54668 7.34402ZM4.26748 9.08823C4.25622 8.95353 4.27586 8.81806 4.32656 8.69291C4.37727 8.56776 4.45666 8.45649 4.55826 8.36822L3.65362 7.31053C3.38606 7.54322 3.17709 7.83656 3.0439 8.16646C2.91071 8.49636 2.85709 8.85339 2.88745 9.20823L4.26748 9.08823Z" fill="white"/>
</svg>
