<svg width="24" height="24" viewBox="0 0 24 24" fill="none" xmlns="http://www.w3.org/2000/svg">
<path d="M3.30639 21.246H20.6935C22.7931 21.246 23.8478 20.2016 23.8478 18.1324V5.86714C23.8478 3.798 22.7931 2.75357 20.6935 2.75357H3.30639C1.2171 2.754 0.1521 3.78857 0.1521 5.86714V18.1329C0.1521 20.2119 1.2171 21.246 3.30639 21.246ZM3.33639 19.6294C2.33181 19.6294 1.76953 19.0971 1.76953 18.0523V5.94857C1.76953 4.90371 2.33181 4.37143 3.33639 4.37143H7.80639V19.6294H3.33639ZM20.6635 4.37143C21.6578 4.37143 22.2304 4.90371 22.2304 5.94857V18.0514C22.2304 19.0963 21.6578 19.6286 20.6635 19.6286H9.38353V4.371L20.6635 4.37143ZM5.87781 8.09829C6.1791 8.09829 6.45039 7.827 6.45039 7.53557C6.45039 7.23429 6.1791 6.97329 5.87781 6.97329H3.71781C3.41696 6.97329 3.15553 7.23429 3.15553 7.53557C3.15553 7.827 3.41696 8.09829 3.71824 8.09829H5.87781ZM5.87781 10.6997C6.1791 10.6997 6.45039 10.4284 6.45039 10.1271C6.45039 9.82586 6.1791 9.57429 5.87781 9.57429H3.71781C3.41696 9.57429 3.15553 9.82586 3.15553 10.1271C3.15553 10.4284 3.41696 10.6997 3.71824 10.6997H5.87781ZM5.87781 13.2913C6.1791 13.2913 6.45039 13.0401 6.45039 12.7384C6.45039 12.4376 6.1791 12.1761 5.87781 12.1761H3.71781C3.41696 12.1761 3.15553 12.4376 3.15553 12.7389C3.15553 13.0401 3.41696 13.2913 3.71824 13.2913H5.87781Z" fill="white"/>
</svg>
